<?xml version="1.0" encoding="UTF-8" standalone="no"?>
<!DOCTYPE svg PUBLIC "-//W3C//DTD SVG 1.1//EN"
 "http://www.w3.org/Graphics/SVG/1.1/DTD/svg11.dtd">
<!-- Generated by graphviz version 2.36.0 (20140111.2315)
 -->
<!-- Title: G Pages: 1 -->
<svg width="314pt" height="1134pt"
 viewBox="0.00 0.00 314.00 1134.00" xmlns="http://www.w3.org/2000/svg" xmlns:xlink="http://www.w3.org/1999/xlink">
<g id="graph0" class="graph" transform="scale(1 1) rotate(0) translate(4 1130)">
<title>G</title>
<polygon fill="white" stroke="none" points="-4,4 -4,-1130 310,-1130 310,4 -4,4"/>
<!-- cse.main -->
<g id="node1" class="node"><title>cse.main</title>
<polygon fill="none" stroke="black" points="98.6104,-1092.54 98.6104,-1107.46 71.8924,-1118 34.1076,-1118 7.38965,-1107.46 7.38965,-1092.54 34.1076,-1082 71.8924,-1082 98.6104,-1092.54"/>
<polygon fill="none" stroke="black" points="102.6,-1089.82 102.6,-1110.18 72.6494,-1122 33.3506,-1122 3.39985,-1110.18 3.39985,-1089.82 33.3506,-1078 72.6494,-1078 102.6,-1089.82"/>
<polygon fill="none" stroke="black" points="106.59,-1087.1 106.59,-1112.9 73.4064,-1126 32.5936,-1126 -0.58994,-1112.9 -0.58994,-1087.1 32.5936,-1074 73.4064,-1074 106.59,-1087.1"/>
<text text-anchor="middle" x="53" y="-1096.3" font-family="Times,serif" font-size="14.00">cse.main</text>
</g>
<!-- ~t0 -->
<g id="node2" class="node"><title>~t0</title>
<ellipse fill="none" stroke="black" cx="173" cy="-357" rx="22.6206" ry="22.9987"/>
<text text-anchor="middle" x="173" y="-353.3" font-family="Times,serif" font-size="14.00">~t0</text>
</g>
<!-- Block Martha2
 &#160; -->
<g id="node3" class="node"><title>Block Martha2
 &#160;</title>
<polygon fill="none" stroke="black" points="186.25,-282 87.75,-282 87.75,-244 186.25,-244 186.25,-282"/>
<text text-anchor="middle" x="137" y="-266.8" font-family="Times,serif" font-size="14.00">Block Martha2</text>
<text text-anchor="middle" x="137" y="-251.8" font-family="Times,serif" font-size="14.00"> &#160;</text>
</g>
<!-- ~t0&#45;&gt;Block Martha2
 &#160; -->
<g id="edge1" class="edge"><title>~t0&#45;&gt;Block Martha2
 &#160;</title>
<path fill="none" stroke="black" d="M165.01,-335.582C159.976,-322.718 153.411,-305.939 147.902,-291.86"/>
<polygon fill="black" stroke="black" points="151.017,-290.217 144.114,-282.18 144.498,-292.768 151.017,-290.217"/>
<text text-anchor="middle" x="161.5" y="-304.3" font-family="Times,serif" font-size="14.00">T</text>
</g>
<!-- Block Gerry2
 &#160; -->
<g id="node4" class="node"><title>Block Gerry2
 &#160;</title>
<polygon fill="none" stroke="black" points="299.25,-282 208.75,-282 208.75,-244 299.25,-244 299.25,-282"/>
<text text-anchor="middle" x="254" y="-266.8" font-family="Times,serif" font-size="14.00">Block Gerry2</text>
<text text-anchor="middle" x="254" y="-251.8" font-family="Times,serif" font-size="14.00"> &#160;</text>
</g>
<!-- ~t0&#45;&gt;Block Gerry2
 &#160; -->
<g id="edge2" class="edge"><title>~t0&#45;&gt;Block Gerry2
 &#160;</title>
<path fill="none" stroke="black" d="M187.481,-339.552C199.571,-325.82 217.026,-305.995 231.022,-290.099"/>
<polygon fill="black" stroke="black" points="233.998,-292.015 237.979,-282.197 228.744,-287.39 233.998,-292.015"/>
<text text-anchor="middle" x="224" y="-304.3" font-family="Times,serif" font-size="14.00">F</text>
</g>
<!-- Block Gertrude1
 &#160;~cse0 = c + d
 &#160;a = ~cse0 -->
<g id="node9" class="node"><title>Block Gertrude1
 &#160;~cse0 = c + d
 &#160;a = ~cse0</title>
<polygon fill="none" stroke="black" points="187.25,-205.5 80.75,-205.5 80.75,-152.5 187.25,-152.5 187.25,-205.5"/>
<text text-anchor="middle" x="134" y="-190.3" font-family="Times,serif" font-size="14.00">Block Gertrude1</text>
<text text-anchor="middle" x="134" y="-175.3" font-family="Times,serif" font-size="14.00"> &#160;~cse0 = c + d</text>
<text text-anchor="middle" x="134" y="-160.3" font-family="Times,serif" font-size="14.00"> &#160;a = ~cse0</text>
</g>
<!-- Block Martha2
 &#160;&#45;&gt;Block Gertrude1
 &#160;~cse0 = c + d
 &#160;a = ~cse0 -->
<g id="edge6" class="edge"><title>Block Martha2
 &#160;&#45;&gt;Block Gertrude1
 &#160;~cse0 = c + d
 &#160;a = ~cse0</title>
<path fill="none" stroke="black" d="M136.334,-243.802C136.032,-235.555 135.665,-225.503 135.311,-215.841"/>
<polygon fill="black" stroke="black" points="138.8,-215.477 134.937,-205.612 131.805,-215.733 138.8,-215.477"/>
</g>
<!-- Block Christ1
 &#160;~cse0 = c + d
 &#160;b = ~cse0 -->
<g id="node8" class="node"><title>Block Christ1
 &#160;~cse0 = c + d
 &#160;b = ~cse0</title>
<polygon fill="none" stroke="black" points="306,-205.5 206,-205.5 206,-152.5 306,-152.5 306,-205.5"/>
<text text-anchor="middle" x="256" y="-190.3" font-family="Times,serif" font-size="14.00">Block Christ1</text>
<text text-anchor="middle" x="256" y="-175.3" font-family="Times,serif" font-size="14.00"> &#160;~cse0 = c + d</text>
<text text-anchor="middle" x="256" y="-160.3" font-family="Times,serif" font-size="14.00"> &#160;b = ~cse0</text>
</g>
<!-- Block Gerry2
 &#160;&#45;&gt;Block Christ1
 &#160;~cse0 = c + d
 &#160;b = ~cse0 -->
<g id="edge5" class="edge"><title>Block Gerry2
 &#160;&#45;&gt;Block Christ1
 &#160;~cse0 = c + d
 &#160;b = ~cse0</title>
<path fill="none" stroke="black" d="M254.444,-243.802C254.645,-235.555 254.89,-225.503 255.126,-215.841"/>
<polygon fill="black" stroke="black" points="258.63,-215.694 255.375,-205.612 251.632,-215.523 258.63,-215.694"/>
</g>
<!-- Block Albert1
 &#160;~cse3 = 1
 &#160;~t0 = ~cse3 -->
<g id="node5" class="node"><title>Block Albert1
 &#160;~cse3 = 1
 &#160;~t0 = ~cse3</title>
<polygon fill="none" stroke="black" points="220,-471.5 126,-471.5 126,-418.5 220,-418.5 220,-471.5"/>
<text text-anchor="middle" x="173" y="-456.3" font-family="Times,serif" font-size="14.00">Block Albert1</text>
<text text-anchor="middle" x="173" y="-441.3" font-family="Times,serif" font-size="14.00"> &#160;~cse3 = 1</text>
<text text-anchor="middle" x="173" y="-426.3" font-family="Times,serif" font-size="14.00"> &#160;~t0 = ~cse3</text>
</g>
<!-- Block Albert1
 &#160;~cse3 = 1
 &#160;~t0 = ~cse3&#45;&gt;~t0 -->
<g id="edge3" class="edge"><title>Block Albert1
 &#160;~cse3 = 1
 &#160;~t0 = ~cse3&#45;&gt;~t0</title>
<path fill="none" stroke="black" d="M173,-418.197C173,-409.354 173,-399.349 173,-390.071"/>
<polygon fill="black" stroke="black" points="176.5,-390.006 173,-380.006 169.5,-390.006 176.5,-390.006"/>
</g>
<!-- Block Sandra1
 &#160;d = ~cse2 -->
<g id="node6" class="node"><title>Block Sandra1
 &#160;d = ~cse2</title>
<polygon fill="none" stroke="black" points="221.25,-792 124.75,-792 124.75,-754 221.25,-754 221.25,-792"/>
<text text-anchor="middle" x="173" y="-776.8" font-family="Times,serif" font-size="14.00">Block Sandra1</text>
<text text-anchor="middle" x="173" y="-761.8" font-family="Times,serif" font-size="14.00"> &#160;d = ~cse2</text>
</g>
<!-- Block Roosevelt1
 &#160;~cse1 = a + b
 &#160;c = ~cse1 -->
<g id="node7" class="node"><title>Block Roosevelt1
 &#160;~cse1 = a + b
 &#160;c = ~cse1</title>
<polygon fill="none" stroke="black" points="229.25,-715.5 116.75,-715.5 116.75,-662.5 229.25,-662.5 229.25,-715.5"/>
<text text-anchor="middle" x="173" y="-700.3" font-family="Times,serif" font-size="14.00">Block Roosevelt1</text>
<text text-anchor="middle" x="173" y="-685.3" font-family="Times,serif" font-size="14.00"> &#160;~cse1 = a + b</text>
<text text-anchor="middle" x="173" y="-670.3" font-family="Times,serif" font-size="14.00"> &#160;c = ~cse1</text>
</g>
<!-- Block Sandra1
 &#160;d = ~cse2&#45;&gt;Block Roosevelt1
 &#160;~cse1 = a + b
 &#160;c = ~cse1 -->
<g id="edge4" class="edge"><title>Block Sandra1
 &#160;d = ~cse2&#45;&gt;Block Roosevelt1
 &#160;~cse1 = a + b
 &#160;c = ~cse1</title>
<path fill="none" stroke="black" d="M173,-753.802C173,-745.555 173,-735.503 173,-725.841"/>
<polygon fill="black" stroke="black" points="176.5,-725.611 173,-715.612 169.5,-725.612 176.5,-725.611"/>
</g>
<!-- Block Uneek1
 &#160;d = ~cse1 -->
<g id="node13" class="node"><title>Block Uneek1
 &#160;d = ~cse1</title>
<polygon fill="none" stroke="black" points="220.25,-624 125.75,-624 125.75,-586 220.25,-586 220.25,-624"/>
<text text-anchor="middle" x="173" y="-608.8" font-family="Times,serif" font-size="14.00">Block Uneek1</text>
<text text-anchor="middle" x="173" y="-593.8" font-family="Times,serif" font-size="14.00"> &#160;d = ~cse1</text>
</g>
<!-- Block Roosevelt1
 &#160;~cse1 = a + b
 &#160;c = ~cse1&#45;&gt;Block Uneek1
 &#160;d = ~cse1 -->
<g id="edge10" class="edge"><title>Block Roosevelt1
 &#160;~cse1 = a + b
 &#160;c = ~cse1&#45;&gt;Block Uneek1
 &#160;d = ~cse1</title>
<path fill="none" stroke="black" d="M173,-662.055C173,-653.219 173,-643.3 173,-634.29"/>
<polygon fill="black" stroke="black" points="176.5,-634.249 173,-624.249 169.5,-634.249 176.5,-634.249"/>
</g>
<!-- Block Magdalin2
 &#160; -->
<g id="node10" class="node"><title>Block Magdalin2
 &#160;</title>
<polygon fill="none" stroke="black" points="261.5,-114 150.5,-114 150.5,-76 261.5,-76 261.5,-114"/>
<text text-anchor="middle" x="206" y="-98.8" font-family="Times,serif" font-size="14.00">Block Magdalin2</text>
<text text-anchor="middle" x="206" y="-83.8" font-family="Times,serif" font-size="14.00"> &#160;</text>
</g>
<!-- Block Christ1
 &#160;~cse0 = c + d
 &#160;b = ~cse0&#45;&gt;Block Magdalin2
 &#160; -->
<g id="edge7" class="edge"><title>Block Christ1
 &#160;~cse0 = c + d
 &#160;b = ~cse0&#45;&gt;Block Magdalin2
 &#160;</title>
<path fill="none" stroke="black" d="M240.18,-152.055C234.499,-142.739 228.084,-132.219 222.359,-122.829"/>
<polygon fill="black" stroke="black" points="225.322,-120.965 217.128,-114.249 219.345,-124.609 225.322,-120.965"/>
</g>
<!-- Block Gertrude1
 &#160;~cse0 = c + d
 &#160;a = ~cse0&#45;&gt;Block Magdalin2
 &#160; -->
<g id="edge9" class="edge"><title>Block Gertrude1
 &#160;~cse0 = c + d
 &#160;a = ~cse0&#45;&gt;Block Magdalin2
 &#160;</title>
<path fill="none" stroke="black" d="M156.781,-152.055C165.214,-142.451 174.771,-131.567 183.205,-121.961"/>
<polygon fill="black" stroke="black" points="186.008,-124.073 189.976,-114.249 180.748,-119.454 186.008,-124.073"/>
</g>
<!-- Block Cassidy1
 &#160;d = ~cse0 -->
<g id="node16" class="node"><title>Block Cassidy1
 &#160;d = ~cse0</title>
<polygon fill="plum" stroke="black" points="256.5,-38 155.5,-38 155.5,-0 256.5,-0 256.5,-38"/>
<text text-anchor="middle" x="206" y="-22.8" font-family="Times,serif" font-size="14.00">Block Cassidy1</text>
<text text-anchor="middle" x="206" y="-7.8" font-family="Times,serif" font-size="14.00"> &#160;d = ~cse0</text>
</g>
<!-- Block Magdalin2
 &#160;&#45;&gt;Block Cassidy1
 &#160;d = ~cse0 -->
<g id="edge14" class="edge"><title>Block Magdalin2
 &#160;&#45;&gt;Block Cassidy1
 &#160;d = ~cse0</title>
<path fill="none" stroke="black" d="M206,-75.7079C206,-67.4635 206,-57.5376 206,-48.3622"/>
<polygon fill="black" stroke="black" points="209.5,-48.0817 206,-38.0817 202.5,-48.0818 209.5,-48.0817"/>
</g>
<!-- Block Ivan1
 &#160;~cse2 = 0
 &#160;a = ~cse2 -->
<g id="node11" class="node"><title>Block Ivan1
 &#160;~cse2 = 0
 &#160;a = ~cse2</title>
<polygon fill="none" stroke="black" points="214.25,-1035.5 131.75,-1035.5 131.75,-982.5 214.25,-982.5 214.25,-1035.5"/>
<text text-anchor="middle" x="173" y="-1020.3" font-family="Times,serif" font-size="14.00">Block Ivan1</text>
<text text-anchor="middle" x="173" y="-1005.3" font-family="Times,serif" font-size="14.00"> &#160;~cse2 = 0</text>
<text text-anchor="middle" x="173" y="-990.3" font-family="Times,serif" font-size="14.00"> &#160;a = ~cse2</text>
</g>
<!-- Block Winter1
 &#160;b = ~cse2 -->
<g id="node12" class="node"><title>Block Winter1
 &#160;b = ~cse2</title>
<polygon fill="none" stroke="black" points="221.5,-944 124.5,-944 124.5,-906 221.5,-906 221.5,-944"/>
<text text-anchor="middle" x="173" y="-928.8" font-family="Times,serif" font-size="14.00">Block Winter1</text>
<text text-anchor="middle" x="173" y="-913.8" font-family="Times,serif" font-size="14.00"> &#160;b = ~cse2</text>
</g>
<!-- Block Ivan1
 &#160;~cse2 = 0
 &#160;a = ~cse2&#45;&gt;Block Winter1
 &#160;b = ~cse2 -->
<g id="edge8" class="edge"><title>Block Ivan1
 &#160;~cse2 = 0
 &#160;a = ~cse2&#45;&gt;Block Winter1
 &#160;b = ~cse2</title>
<path fill="none" stroke="black" d="M173,-982.055C173,-973.219 173,-963.3 173,-954.29"/>
<polygon fill="black" stroke="black" points="176.5,-954.249 173,-944.249 169.5,-954.249 176.5,-954.249"/>
</g>
<!-- Block Jim1
 &#160;c = ~cse2 -->
<g id="node17" class="node"><title>Block Jim1
 &#160;c = ~cse2</title>
<polygon fill="none" stroke="black" points="213,-868 133,-868 133,-830 213,-830 213,-868"/>
<text text-anchor="middle" x="173" y="-852.8" font-family="Times,serif" font-size="14.00">Block Jim1</text>
<text text-anchor="middle" x="173" y="-837.8" font-family="Times,serif" font-size="14.00"> &#160;c = ~cse2</text>
</g>
<!-- Block Winter1
 &#160;b = ~cse2&#45;&gt;Block Jim1
 &#160;c = ~cse2 -->
<g id="edge15" class="edge"><title>Block Winter1
 &#160;b = ~cse2&#45;&gt;Block Jim1
 &#160;c = ~cse2</title>
<path fill="none" stroke="black" d="M173,-905.708C173,-897.464 173,-887.538 173,-878.362"/>
<polygon fill="black" stroke="black" points="176.5,-878.082 173,-868.082 169.5,-878.082 176.5,-878.082"/>
</g>
<!-- Block Holden1
 &#160; -->
<g id="node14" class="node"><title>Block Holden1
 &#160;</title>
<polygon fill="none" stroke="black" points="222.25,-548 123.75,-548 123.75,-510 222.25,-510 222.25,-548"/>
<text text-anchor="middle" x="173" y="-532.8" font-family="Times,serif" font-size="14.00">Block Holden1</text>
<text text-anchor="middle" x="173" y="-517.8" font-family="Times,serif" font-size="14.00"> &#160;</text>
</g>
<!-- Block Uneek1
 &#160;d = ~cse1&#45;&gt;Block Holden1
 &#160; -->
<g id="edge11" class="edge"><title>Block Uneek1
 &#160;d = ~cse1&#45;&gt;Block Holden1
 &#160;</title>
<path fill="none" stroke="black" d="M173,-585.708C173,-577.464 173,-567.538 173,-558.362"/>
<polygon fill="black" stroke="black" points="176.5,-558.082 173,-548.082 169.5,-558.082 176.5,-558.082"/>
</g>
<!-- Block Holden1
 &#160;&#45;&gt;Block Albert1
 &#160;~cse3 = 1
 &#160;~t0 = ~cse3 -->
<g id="edge13" class="edge"><title>Block Holden1
 &#160;&#45;&gt;Block Albert1
 &#160;~cse3 = 1
 &#160;~t0 = ~cse3</title>
<path fill="none" stroke="black" d="M173,-509.802C173,-501.555 173,-491.503 173,-481.841"/>
<polygon fill="black" stroke="black" points="176.5,-481.611 173,-471.612 169.5,-481.612 176.5,-481.611"/>
</g>
<!-- Block Robert1
 &#160; -->
<g id="node15" class="node"><title>Block Robert1
 &#160;</title>
<polygon fill="lightgreen" stroke="black" points="221,-1119 125,-1119 125,-1081 221,-1081 221,-1119"/>
<text text-anchor="middle" x="173" y="-1103.8" font-family="Times,serif" font-size="14.00">Block Robert1</text>
<text text-anchor="middle" x="173" y="-1088.8" font-family="Times,serif" font-size="14.00"> &#160;</text>
</g>
<!-- Block Robert1
 &#160;&#45;&gt;Block Ivan1
 &#160;~cse2 = 0
 &#160;a = ~cse2 -->
<g id="edge12" class="edge"><title>Block Robert1
 &#160;&#45;&gt;Block Ivan1
 &#160;~cse2 = 0
 &#160;a = ~cse2</title>
<path fill="none" stroke="black" d="M173,-1080.99C173,-1070.93 173,-1058.04 173,-1046"/>
<polygon fill="black" stroke="black" points="176.5,-1045.74 173,-1035.74 169.5,-1045.74 176.5,-1045.74"/>
</g>
<!-- Block Jim1
 &#160;c = ~cse2&#45;&gt;Block Sandra1
 &#160;d = ~cse2 -->
<g id="edge16" class="edge"><title>Block Jim1
 &#160;c = ~cse2&#45;&gt;Block Sandra1
 &#160;d = ~cse2</title>
<path fill="none" stroke="black" d="M173,-829.708C173,-821.464 173,-811.538 173,-802.362"/>
<polygon fill="black" stroke="black" points="176.5,-802.082 173,-792.082 169.5,-802.082 176.5,-802.082"/>
</g>
</g>
</svg>
