<?xml version="1.0" encoding="UTF-8" standalone="no"?>
<!DOCTYPE svg PUBLIC "-//W3C//DTD SVG 1.1//EN"
 "http://www.w3.org/Graphics/SVG/1.1/DTD/svg11.dtd">
<!-- Generated by graphviz version 2.36.0 (20140111.2315)
 -->
<!-- Title: G Pages: 1 -->
<svg width="327pt" height="1070pt"
 viewBox="0.00 0.00 327.00 1070.00" xmlns="http://www.w3.org/2000/svg" xmlns:xlink="http://www.w3.org/1999/xlink">
<g id="graph0" class="graph" transform="scale(1 1) rotate(0) translate(4 1066)">
<title>G</title>
<polygon fill="white" stroke="none" points="-4,4 -4,-1066 323,-1066 323,4 -4,4"/>
<!-- 1&#45;raw.main -->
<g id="node1" class="node"><title>1&#45;raw.main</title>
<polygon fill="none" stroke="black" points="119.965,-1028.54 119.965,-1043.46 87.1815,-1054 40.8185,-1054 8.03498,-1043.46 8.03498,-1028.54 40.8185,-1018 87.1815,-1018 119.965,-1028.54"/>
<polygon fill="none" stroke="black" points="123.943,-1025.62 123.943,-1046.38 87.8021,-1058 40.1979,-1058 4.05732,-1046.38 4.05732,-1025.62 40.1979,-1014 87.8021,-1014 123.943,-1025.62"/>
<polygon fill="none" stroke="black" points="127.92,-1022.7 127.92,-1049.3 88.4227,-1062 39.5773,-1062 0.0796667,-1049.3 0.0796667,-1022.7 39.5773,-1010 88.4227,-1010 127.92,-1022.7"/>
<text text-anchor="middle" x="64" y="-1032.3" font-family="Times,serif" font-size="14.00">1&#45;raw.main</text>
</g>
<!-- Block Uneek0
 &#160;a = c + d -->
<g id="node2" class="node"><title>Block Uneek0
 &#160;a = c + d</title>
<polygon fill="none" stroke="black" points="202.25,-190 107.75,-190 107.75,-152 202.25,-152 202.25,-190"/>
<text text-anchor="middle" x="155" y="-174.8" font-family="Times,serif" font-size="14.00">Block Uneek0</text>
<text text-anchor="middle" x="155" y="-159.8" font-family="Times,serif" font-size="14.00"> &#160;a = c + d</text>
</g>
<!-- Block Albert0
 &#160; -->
<g id="node3" class="node"><title>Block Albert0
 &#160;</title>
<polygon fill="none" stroke="black" points="270,-114 176,-114 176,-76 270,-76 270,-114"/>
<text text-anchor="middle" x="223" y="-98.8" font-family="Times,serif" font-size="14.00">Block Albert0</text>
<text text-anchor="middle" x="223" y="-83.8" font-family="Times,serif" font-size="14.00"> &#160;</text>
</g>
<!-- Block Uneek0
 &#160;a = c + d&#45;&gt;Block Albert0
 &#160; -->
<g id="edge1" class="edge"><title>Block Uneek0
 &#160;a = c + d&#45;&gt;Block Albert0
 &#160;</title>
<path fill="none" stroke="black" d="M171.809,-151.708C180.126,-142.657 190.305,-131.579 199.39,-121.693"/>
<polygon fill="black" stroke="black" points="202.195,-123.813 206.384,-114.082 197.041,-119.077 202.195,-123.813"/>
</g>
<!-- Block Magdalin1
 &#160;d = c + d -->
<g id="node17" class="node"><title>Block Magdalin1
 &#160;d = c + d</title>
<polygon fill="plum" stroke="black" points="278.5,-38 167.5,-38 167.5,-0 278.5,-0 278.5,-38"/>
<text text-anchor="middle" x="223" y="-22.8" font-family="Times,serif" font-size="14.00">Block Magdalin1</text>
<text text-anchor="middle" x="223" y="-7.8" font-family="Times,serif" font-size="14.00"> &#160;d = c + d</text>
</g>
<!-- Block Albert0
 &#160;&#45;&gt;Block Magdalin1
 &#160;d = c + d -->
<g id="edge16" class="edge"><title>Block Albert0
 &#160;&#45;&gt;Block Magdalin1
 &#160;d = c + d</title>
<path fill="none" stroke="black" d="M223,-75.7079C223,-67.4635 223,-57.5376 223,-48.3622"/>
<polygon fill="black" stroke="black" points="226.5,-48.0817 223,-38.0817 219.5,-48.0818 226.5,-48.0817"/>
</g>
<!-- Block Winter0
 &#160;c = a + b -->
<g id="node4" class="node"><title>Block Winter0
 &#160;c = a + b</title>
<polygon fill="none" stroke="black" points="239.5,-668 142.5,-668 142.5,-630 239.5,-630 239.5,-668"/>
<text text-anchor="middle" x="191" y="-652.8" font-family="Times,serif" font-size="14.00">Block Winter0</text>
<text text-anchor="middle" x="191" y="-637.8" font-family="Times,serif" font-size="14.00"> &#160;c = a + b</text>
</g>
<!-- Block Sandra0
 &#160;d = a + b -->
<g id="node5" class="node"><title>Block Sandra0
 &#160;d = a + b</title>
<polygon fill="none" stroke="black" points="239.25,-592 142.75,-592 142.75,-554 239.25,-554 239.25,-592"/>
<text text-anchor="middle" x="191" y="-576.8" font-family="Times,serif" font-size="14.00">Block Sandra0</text>
<text text-anchor="middle" x="191" y="-561.8" font-family="Times,serif" font-size="14.00"> &#160;d = a + b</text>
</g>
<!-- Block Winter0
 &#160;c = a + b&#45;&gt;Block Sandra0
 &#160;d = a + b -->
<g id="edge2" class="edge"><title>Block Winter0
 &#160;c = a + b&#45;&gt;Block Sandra0
 &#160;d = a + b</title>
<path fill="none" stroke="black" d="M191,-629.708C191,-621.464 191,-611.538 191,-602.362"/>
<polygon fill="black" stroke="black" points="194.5,-602.082 191,-592.082 187.5,-602.082 194.5,-602.082"/>
</g>
<!-- Block Robert0
 &#160; -->
<g id="node10" class="node"><title>Block Robert0
 &#160;</title>
<polygon fill="none" stroke="black" points="239,-516 143,-516 143,-478 239,-478 239,-516"/>
<text text-anchor="middle" x="191" y="-500.8" font-family="Times,serif" font-size="14.00">Block Robert0</text>
<text text-anchor="middle" x="191" y="-485.8" font-family="Times,serif" font-size="14.00"> &#160;</text>
</g>
<!-- Block Sandra0
 &#160;d = a + b&#45;&gt;Block Robert0
 &#160; -->
<g id="edge9" class="edge"><title>Block Sandra0
 &#160;d = a + b&#45;&gt;Block Robert0
 &#160;</title>
<path fill="none" stroke="black" d="M191,-553.708C191,-545.464 191,-535.538 191,-526.362"/>
<polygon fill="black" stroke="black" points="194.5,-526.082 191,-516.082 187.5,-526.082 194.5,-526.082"/>
</g>
<!-- Block Ivan0
 &#160;c = 0 -->
<g id="node6" class="node"><title>Block Ivan0
 &#160;c = 0</title>
<polygon fill="none" stroke="black" points="232.25,-820 149.75,-820 149.75,-782 232.25,-782 232.25,-820"/>
<text text-anchor="middle" x="191" y="-804.8" font-family="Times,serif" font-size="14.00">Block Ivan0</text>
<text text-anchor="middle" x="191" y="-789.8" font-family="Times,serif" font-size="14.00"> &#160;c = 0</text>
</g>
<!-- Block Holden0
 &#160;d = 0 -->
<g id="node7" class="node"><title>Block Holden0
 &#160;d = 0</title>
<polygon fill="none" stroke="black" points="240.25,-744 141.75,-744 141.75,-706 240.25,-706 240.25,-744"/>
<text text-anchor="middle" x="191" y="-728.8" font-family="Times,serif" font-size="14.00">Block Holden0</text>
<text text-anchor="middle" x="191" y="-713.8" font-family="Times,serif" font-size="14.00"> &#160;d = 0</text>
</g>
<!-- Block Ivan0
 &#160;c = 0&#45;&gt;Block Holden0
 &#160;d = 0 -->
<g id="edge3" class="edge"><title>Block Ivan0
 &#160;c = 0&#45;&gt;Block Holden0
 &#160;d = 0</title>
<path fill="none" stroke="black" d="M191,-781.708C191,-773.464 191,-763.538 191,-754.362"/>
<polygon fill="black" stroke="black" points="194.5,-754.082 191,-744.082 187.5,-754.082 194.5,-754.082"/>
</g>
<!-- Block Holden0
 &#160;d = 0&#45;&gt;Block Winter0
 &#160;c = a + b -->
<g id="edge7" class="edge"><title>Block Holden0
 &#160;d = 0&#45;&gt;Block Winter0
 &#160;c = a + b</title>
<path fill="none" stroke="black" d="M191,-705.708C191,-697.464 191,-687.538 191,-678.362"/>
<polygon fill="black" stroke="black" points="194.5,-678.082 191,-668.082 187.5,-678.082 194.5,-678.082"/>
</g>
<!-- Block Roosevelt0
 &#160;a = 0 -->
<g id="node8" class="node"><title>Block Roosevelt0
 &#160;a = 0</title>
<polygon fill="none" stroke="black" points="247.25,-972 134.75,-972 134.75,-934 247.25,-934 247.25,-972"/>
<text text-anchor="middle" x="191" y="-956.8" font-family="Times,serif" font-size="14.00">Block Roosevelt0</text>
<text text-anchor="middle" x="191" y="-941.8" font-family="Times,serif" font-size="14.00"> &#160;a = 0</text>
</g>
<!-- Block Jim0
 &#160;b = 0 -->
<g id="node9" class="node"><title>Block Jim0
 &#160;b = 0</title>
<polygon fill="none" stroke="black" points="231,-896 151,-896 151,-858 231,-858 231,-896"/>
<text text-anchor="middle" x="191" y="-880.8" font-family="Times,serif" font-size="14.00">Block Jim0</text>
<text text-anchor="middle" x="191" y="-865.8" font-family="Times,serif" font-size="14.00"> &#160;b = 0</text>
</g>
<!-- Block Roosevelt0
 &#160;a = 0&#45;&gt;Block Jim0
 &#160;b = 0 -->
<g id="edge4" class="edge"><title>Block Roosevelt0
 &#160;a = 0&#45;&gt;Block Jim0
 &#160;b = 0</title>
<path fill="none" stroke="black" d="M191,-933.708C191,-925.464 191,-915.538 191,-906.362"/>
<polygon fill="black" stroke="black" points="194.5,-906.082 191,-896.082 187.5,-906.082 194.5,-906.082"/>
</g>
<!-- Block Jim0
 &#160;b = 0&#45;&gt;Block Ivan0
 &#160;c = 0 -->
<g id="edge6" class="edge"><title>Block Jim0
 &#160;b = 0&#45;&gt;Block Ivan0
 &#160;c = 0</title>
<path fill="none" stroke="black" d="M191,-857.708C191,-849.464 191,-839.538 191,-830.362"/>
<polygon fill="black" stroke="black" points="194.5,-830.082 191,-820.082 187.5,-830.082 194.5,-830.082"/>
</g>
<!-- Block Cassidy0
 &#160;~t0 = 1 -->
<g id="node11" class="node"><title>Block Cassidy0
 &#160;~t0 = 1</title>
<polygon fill="none" stroke="black" points="241.5,-440 140.5,-440 140.5,-402 241.5,-402 241.5,-440"/>
<text text-anchor="middle" x="191" y="-424.8" font-family="Times,serif" font-size="14.00">Block Cassidy0</text>
<text text-anchor="middle" x="191" y="-409.8" font-family="Times,serif" font-size="14.00"> &#160;~t0 = 1</text>
</g>
<!-- Block Robert0
 &#160;&#45;&gt;Block Cassidy0
 &#160;~t0 = 1 -->
<g id="edge5" class="edge"><title>Block Robert0
 &#160;&#45;&gt;Block Cassidy0
 &#160;~t0 = 1</title>
<path fill="none" stroke="black" d="M191,-477.708C191,-469.464 191,-459.538 191,-450.362"/>
<polygon fill="black" stroke="black" points="194.5,-450.082 191,-440.082 187.5,-450.082 194.5,-450.082"/>
</g>
<!-- ~t0 -->
<g id="node14" class="node"><title>~t0</title>
<ellipse fill="none" stroke="black" cx="191" cy="-341" rx="22.6206" ry="22.9987"/>
<text text-anchor="middle" x="191" y="-337.3" font-family="Times,serif" font-size="14.00">~t0</text>
</g>
<!-- Block Cassidy0
 &#160;~t0 = 1&#45;&gt;~t0 -->
<g id="edge13" class="edge"><title>Block Cassidy0
 &#160;~t0 = 1&#45;&gt;~t0</title>
<path fill="none" stroke="black" d="M191,-401.909C191,-393.581 191,-383.446 191,-373.899"/>
<polygon fill="black" stroke="black" points="194.5,-373.883 191,-363.883 187.5,-373.883 194.5,-373.883"/>
</g>
<!-- Block Hope1
 &#160; -->
<g id="node12" class="node"><title>Block Hope1
 &#160;</title>
<polygon fill="lightgreen" stroke="black" points="235.25,-1055 146.75,-1055 146.75,-1017 235.25,-1017 235.25,-1055"/>
<text text-anchor="middle" x="191" y="-1039.8" font-family="Times,serif" font-size="14.00">Block Hope1</text>
<text text-anchor="middle" x="191" y="-1024.8" font-family="Times,serif" font-size="14.00"> &#160;</text>
</g>
<!-- Block Hope1
 &#160;&#45;&gt;Block Roosevelt0
 &#160;a = 0 -->
<g id="edge8" class="edge"><title>Block Hope1
 &#160;&#45;&gt;Block Roosevelt0
 &#160;a = 0</title>
<path fill="none" stroke="black" d="M191,-1016.62C191,-1006.5 191,-993.731 191,-982.364"/>
<polygon fill="black" stroke="black" points="194.5,-982.028 191,-972.028 187.5,-982.028 194.5,-982.028"/>
</g>
<!-- Block Martha1
 &#160;b = c + d -->
<g id="node13" class="node"><title>Block Martha1
 &#160;b = c + d</title>
<polygon fill="none" stroke="black" points="319.25,-190 220.75,-190 220.75,-152 319.25,-152 319.25,-190"/>
<text text-anchor="middle" x="270" y="-174.8" font-family="Times,serif" font-size="14.00">Block Martha1</text>
<text text-anchor="middle" x="270" y="-159.8" font-family="Times,serif" font-size="14.00"> &#160;b = c + d</text>
</g>
<!-- Block Martha1
 &#160;b = c + d&#45;&gt;Block Albert0
 &#160; -->
<g id="edge10" class="edge"><title>Block Martha1
 &#160;b = c + d&#45;&gt;Block Albert0
 &#160;</title>
<path fill="none" stroke="black" d="M258.382,-151.708C252.804,-142.926 246.015,-132.236 239.88,-122.577"/>
<polygon fill="black" stroke="black" points="242.8,-120.647 234.484,-114.082 236.891,-124.4 242.8,-120.647"/>
</g>
<!-- Block Christ0
 &#160; -->
<g id="node15" class="node"><title>Block Christ0
 &#160;</title>
<polygon fill="none" stroke="black" points="202,-266 110,-266 110,-228 202,-228 202,-266"/>
<text text-anchor="middle" x="156" y="-250.8" font-family="Times,serif" font-size="14.00">Block Christ0</text>
<text text-anchor="middle" x="156" y="-235.8" font-family="Times,serif" font-size="14.00"> &#160;</text>
</g>
<!-- ~t0&#45;&gt;Block Christ0
 &#160; -->
<g id="edge11" class="edge"><title>~t0&#45;&gt;Block Christ0
 &#160;</title>
<path fill="none" stroke="black" d="M183.232,-319.582C178.338,-306.718 171.955,-289.939 166.599,-275.86"/>
<polygon fill="black" stroke="black" points="169.743,-274.282 162.916,-266.18 163.201,-276.771 169.743,-274.282"/>
<text text-anchor="middle" x="179.5" y="-288.3" font-family="Times,serif" font-size="14.00">T</text>
</g>
<!-- Block Gerry1
 &#160; -->
<g id="node16" class="node"><title>Block Gerry1
 &#160;</title>
<polygon fill="none" stroke="black" points="313.25,-266 222.75,-266 222.75,-228 313.25,-228 313.25,-266"/>
<text text-anchor="middle" x="268" y="-250.8" font-family="Times,serif" font-size="14.00">Block Gerry1</text>
<text text-anchor="middle" x="268" y="-235.8" font-family="Times,serif" font-size="14.00"> &#160;</text>
</g>
<!-- ~t0&#45;&gt;Block Gerry1
 &#160; -->
<g id="edge12" class="edge"><title>~t0&#45;&gt;Block Gerry1
 &#160;</title>
<path fill="none" stroke="black" d="M205.123,-323.126C216.658,-309.343 233.153,-289.635 246.354,-273.863"/>
<polygon fill="black" stroke="black" points="249.179,-275.94 252.914,-266.025 243.811,-271.448 249.179,-275.94"/>
<text text-anchor="middle" x="240" y="-288.3" font-family="Times,serif" font-size="14.00">F</text>
</g>
<!-- Block Christ0
 &#160;&#45;&gt;Block Uneek0
 &#160;a = c + d -->
<g id="edge14" class="edge"><title>Block Christ0
 &#160;&#45;&gt;Block Uneek0
 &#160;a = c + d</title>
<path fill="none" stroke="black" d="M155.753,-227.708C155.641,-219.464 155.507,-209.538 155.383,-200.362"/>
<polygon fill="black" stroke="black" points="158.879,-200.033 155.244,-190.082 151.88,-200.128 158.879,-200.033"/>
</g>
<!-- Block Gerry1
 &#160;&#45;&gt;Block Martha1
 &#160;b = c + d -->
<g id="edge15" class="edge"><title>Block Gerry1
 &#160;&#45;&gt;Block Martha1
 &#160;b = c + d</title>
<path fill="none" stroke="black" d="M268.494,-227.708C268.717,-219.464 268.985,-209.538 269.233,-200.362"/>
<polygon fill="black" stroke="black" points="272.74,-200.173 269.511,-190.082 265.742,-199.983 272.74,-200.173"/>
</g>
</g>
</svg>
